%TF.GenerationSoftware,KiCad,Pcbnew,7.0.6*%
%TF.CreationDate,2024-01-07T21:19:13+01:00*%
%TF.ProjectId,esp-lamp,6573702d-6c61-46d7-902e-6b696361645f,rev?*%
%TF.SameCoordinates,Original*%
%TF.FileFunction,Legend,Bot*%
%TF.FilePolarity,Positive*%
%FSLAX46Y46*%
G04 Gerber Fmt 4.6, Leading zero omitted, Abs format (unit mm)*
G04 Created by KiCad (PCBNEW 7.0.6) date 2024-01-07 21:19:13*
%MOMM*%
%LPD*%
G01*
G04 APERTURE LIST*
G04 Aperture macros list*
%AMRoundRect*
0 Rectangle with rounded corners*
0 $1 Rounding radius*
0 $2 $3 $4 $5 $6 $7 $8 $9 X,Y pos of 4 corners*
0 Add a 4 corners polygon primitive as box body*
4,1,4,$2,$3,$4,$5,$6,$7,$8,$9,$2,$3,0*
0 Add four circle primitives for the rounded corners*
1,1,$1+$1,$2,$3*
1,1,$1+$1,$4,$5*
1,1,$1+$1,$6,$7*
1,1,$1+$1,$8,$9*
0 Add four rect primitives between the rounded corners*
20,1,$1+$1,$2,$3,$4,$5,0*
20,1,$1+$1,$4,$5,$6,$7,0*
20,1,$1+$1,$6,$7,$8,$9,0*
20,1,$1+$1,$8,$9,$2,$3,0*%
%AMRotRect*
0 Rectangle, with rotation*
0 The origin of the aperture is its center*
0 $1 length*
0 $2 width*
0 $3 Rotation angle, in degrees counterclockwise*
0 Add horizontal line*
21,1,$1,$2,0,0,$3*%
G04 Aperture macros list end*
%ADD10C,0.150000*%
%ADD11C,0.120000*%
%ADD12C,0.300000*%
%ADD13C,2.200000*%
%ADD14R,1.700000X1.700000*%
%ADD15O,1.700000X1.700000*%
%ADD16C,1.100000*%
%ADD17RotRect,2.200000X2.200000X144.500000*%
%ADD18O,3.000000X2.500000*%
%ADD19C,2.000000*%
%ADD20RoundRect,0.237500X-0.250000X-0.237500X0.250000X-0.237500X0.250000X0.237500X-0.250000X0.237500X0*%
%ADD21RoundRect,0.310000X0.833000X0.310000X-0.833000X0.310000X-0.833000X-0.310000X0.833000X-0.310000X0*%
%ADD22RoundRect,0.237500X0.237500X-0.250000X0.237500X0.250000X-0.237500X0.250000X-0.237500X-0.250000X0*%
%ADD23RoundRect,0.237500X-0.237500X0.250000X-0.237500X-0.250000X0.237500X-0.250000X0.237500X0.250000X0*%
%ADD24RoundRect,0.237500X-0.237500X0.300000X-0.237500X-0.300000X0.237500X-0.300000X0.237500X0.300000X0*%
%ADD25R,0.900000X1.500000*%
%ADD26R,1.500000X0.900000*%
%ADD27C,0.800000*%
%ADD28R,4.200000X4.200000*%
%ADD29C,0.650000*%
%ADD30R,0.600000X1.450000*%
%ADD31R,0.300000X1.450000*%
%ADD32O,1.000000X1.600000*%
%ADD33O,1.000000X2.100000*%
G04 APERTURE END LIST*
D10*
X131666666Y-87854819D02*
X131999999Y-87378628D01*
X132238094Y-87854819D02*
X132238094Y-86854819D01*
X132238094Y-86854819D02*
X131857142Y-86854819D01*
X131857142Y-86854819D02*
X131761904Y-86902438D01*
X131761904Y-86902438D02*
X131714285Y-86950057D01*
X131714285Y-86950057D02*
X131666666Y-87045295D01*
X131666666Y-87045295D02*
X131666666Y-87188152D01*
X131666666Y-87188152D02*
X131714285Y-87283390D01*
X131714285Y-87283390D02*
X131761904Y-87331009D01*
X131761904Y-87331009D02*
X131857142Y-87378628D01*
X131857142Y-87378628D02*
X132238094Y-87378628D01*
X131285713Y-86950057D02*
X131238094Y-86902438D01*
X131238094Y-86902438D02*
X131142856Y-86854819D01*
X131142856Y-86854819D02*
X130904761Y-86854819D01*
X130904761Y-86854819D02*
X130809523Y-86902438D01*
X130809523Y-86902438D02*
X130761904Y-86950057D01*
X130761904Y-86950057D02*
X130714285Y-87045295D01*
X130714285Y-87045295D02*
X130714285Y-87140533D01*
X130714285Y-87140533D02*
X130761904Y-87283390D01*
X130761904Y-87283390D02*
X131333332Y-87854819D01*
X131333332Y-87854819D02*
X130714285Y-87854819D01*
X128666666Y-90854819D02*
X128999999Y-90378628D01*
X129238094Y-90854819D02*
X129238094Y-89854819D01*
X129238094Y-89854819D02*
X128857142Y-89854819D01*
X128857142Y-89854819D02*
X128761904Y-89902438D01*
X128761904Y-89902438D02*
X128714285Y-89950057D01*
X128714285Y-89950057D02*
X128666666Y-90045295D01*
X128666666Y-90045295D02*
X128666666Y-90188152D01*
X128666666Y-90188152D02*
X128714285Y-90283390D01*
X128714285Y-90283390D02*
X128761904Y-90331009D01*
X128761904Y-90331009D02*
X128857142Y-90378628D01*
X128857142Y-90378628D02*
X129238094Y-90378628D01*
X127714285Y-90854819D02*
X128285713Y-90854819D01*
X127999999Y-90854819D02*
X127999999Y-89854819D01*
X127999999Y-89854819D02*
X128095237Y-89997676D01*
X128095237Y-89997676D02*
X128190475Y-90092914D01*
X128190475Y-90092914D02*
X128285713Y-90140533D01*
X116561904Y-108254819D02*
X116561904Y-109064342D01*
X116561904Y-109064342D02*
X116514285Y-109159580D01*
X116514285Y-109159580D02*
X116466666Y-109207200D01*
X116466666Y-109207200D02*
X116371428Y-109254819D01*
X116371428Y-109254819D02*
X116180952Y-109254819D01*
X116180952Y-109254819D02*
X116085714Y-109207200D01*
X116085714Y-109207200D02*
X116038095Y-109159580D01*
X116038095Y-109159580D02*
X115990476Y-109064342D01*
X115990476Y-109064342D02*
X115990476Y-108254819D01*
X115609523Y-108254819D02*
X114990476Y-108254819D01*
X114990476Y-108254819D02*
X115323809Y-108635771D01*
X115323809Y-108635771D02*
X115180952Y-108635771D01*
X115180952Y-108635771D02*
X115085714Y-108683390D01*
X115085714Y-108683390D02*
X115038095Y-108731009D01*
X115038095Y-108731009D02*
X114990476Y-108826247D01*
X114990476Y-108826247D02*
X114990476Y-109064342D01*
X114990476Y-109064342D02*
X115038095Y-109159580D01*
X115038095Y-109159580D02*
X115085714Y-109207200D01*
X115085714Y-109207200D02*
X115180952Y-109254819D01*
X115180952Y-109254819D02*
X115466666Y-109254819D01*
X115466666Y-109254819D02*
X115561904Y-109207200D01*
X115561904Y-109207200D02*
X115609523Y-109159580D01*
X136154819Y-86857142D02*
X135678628Y-86523809D01*
X136154819Y-86285714D02*
X135154819Y-86285714D01*
X135154819Y-86285714D02*
X135154819Y-86666666D01*
X135154819Y-86666666D02*
X135202438Y-86761904D01*
X135202438Y-86761904D02*
X135250057Y-86809523D01*
X135250057Y-86809523D02*
X135345295Y-86857142D01*
X135345295Y-86857142D02*
X135488152Y-86857142D01*
X135488152Y-86857142D02*
X135583390Y-86809523D01*
X135583390Y-86809523D02*
X135631009Y-86761904D01*
X135631009Y-86761904D02*
X135678628Y-86666666D01*
X135678628Y-86666666D02*
X135678628Y-86285714D01*
X136154819Y-87809523D02*
X136154819Y-87238095D01*
X136154819Y-87523809D02*
X135154819Y-87523809D01*
X135154819Y-87523809D02*
X135297676Y-87428571D01*
X135297676Y-87428571D02*
X135392914Y-87333333D01*
X135392914Y-87333333D02*
X135440533Y-87238095D01*
X136154819Y-88761904D02*
X136154819Y-88190476D01*
X136154819Y-88476190D02*
X135154819Y-88476190D01*
X135154819Y-88476190D02*
X135297676Y-88380952D01*
X135297676Y-88380952D02*
X135392914Y-88285714D01*
X135392914Y-88285714D02*
X135440533Y-88190476D01*
X127424819Y-110807142D02*
X126948628Y-110473809D01*
X127424819Y-110235714D02*
X126424819Y-110235714D01*
X126424819Y-110235714D02*
X126424819Y-110616666D01*
X126424819Y-110616666D02*
X126472438Y-110711904D01*
X126472438Y-110711904D02*
X126520057Y-110759523D01*
X126520057Y-110759523D02*
X126615295Y-110807142D01*
X126615295Y-110807142D02*
X126758152Y-110807142D01*
X126758152Y-110807142D02*
X126853390Y-110759523D01*
X126853390Y-110759523D02*
X126901009Y-110711904D01*
X126901009Y-110711904D02*
X126948628Y-110616666D01*
X126948628Y-110616666D02*
X126948628Y-110235714D01*
X127424819Y-111759523D02*
X127424819Y-111188095D01*
X127424819Y-111473809D02*
X126424819Y-111473809D01*
X126424819Y-111473809D02*
X126567676Y-111378571D01*
X126567676Y-111378571D02*
X126662914Y-111283333D01*
X126662914Y-111283333D02*
X126710533Y-111188095D01*
X126520057Y-112140476D02*
X126472438Y-112188095D01*
X126472438Y-112188095D02*
X126424819Y-112283333D01*
X126424819Y-112283333D02*
X126424819Y-112521428D01*
X126424819Y-112521428D02*
X126472438Y-112616666D01*
X126472438Y-112616666D02*
X126520057Y-112664285D01*
X126520057Y-112664285D02*
X126615295Y-112711904D01*
X126615295Y-112711904D02*
X126710533Y-112711904D01*
X126710533Y-112711904D02*
X126853390Y-112664285D01*
X126853390Y-112664285D02*
X127424819Y-112092857D01*
X127424819Y-112092857D02*
X127424819Y-112711904D01*
X130559580Y-83033333D02*
X130607200Y-82985714D01*
X130607200Y-82985714D02*
X130654819Y-82842857D01*
X130654819Y-82842857D02*
X130654819Y-82747619D01*
X130654819Y-82747619D02*
X130607200Y-82604762D01*
X130607200Y-82604762D02*
X130511961Y-82509524D01*
X130511961Y-82509524D02*
X130416723Y-82461905D01*
X130416723Y-82461905D02*
X130226247Y-82414286D01*
X130226247Y-82414286D02*
X130083390Y-82414286D01*
X130083390Y-82414286D02*
X129892914Y-82461905D01*
X129892914Y-82461905D02*
X129797676Y-82509524D01*
X129797676Y-82509524D02*
X129702438Y-82604762D01*
X129702438Y-82604762D02*
X129654819Y-82747619D01*
X129654819Y-82747619D02*
X129654819Y-82842857D01*
X129654819Y-82842857D02*
X129702438Y-82985714D01*
X129702438Y-82985714D02*
X129750057Y-83033333D01*
X129654819Y-83890476D02*
X129654819Y-83700000D01*
X129654819Y-83700000D02*
X129702438Y-83604762D01*
X129702438Y-83604762D02*
X129750057Y-83557143D01*
X129750057Y-83557143D02*
X129892914Y-83461905D01*
X129892914Y-83461905D02*
X130083390Y-83414286D01*
X130083390Y-83414286D02*
X130464342Y-83414286D01*
X130464342Y-83414286D02*
X130559580Y-83461905D01*
X130559580Y-83461905D02*
X130607200Y-83509524D01*
X130607200Y-83509524D02*
X130654819Y-83604762D01*
X130654819Y-83604762D02*
X130654819Y-83795238D01*
X130654819Y-83795238D02*
X130607200Y-83890476D01*
X130607200Y-83890476D02*
X130559580Y-83938095D01*
X130559580Y-83938095D02*
X130464342Y-83985714D01*
X130464342Y-83985714D02*
X130226247Y-83985714D01*
X130226247Y-83985714D02*
X130131009Y-83938095D01*
X130131009Y-83938095D02*
X130083390Y-83890476D01*
X130083390Y-83890476D02*
X130035771Y-83795238D01*
X130035771Y-83795238D02*
X130035771Y-83604762D01*
X130035771Y-83604762D02*
X130083390Y-83509524D01*
X130083390Y-83509524D02*
X130131009Y-83461905D01*
X130131009Y-83461905D02*
X130226247Y-83414286D01*
X127329580Y-115970833D02*
X127377200Y-115923214D01*
X127377200Y-115923214D02*
X127424819Y-115780357D01*
X127424819Y-115780357D02*
X127424819Y-115685119D01*
X127424819Y-115685119D02*
X127377200Y-115542262D01*
X127377200Y-115542262D02*
X127281961Y-115447024D01*
X127281961Y-115447024D02*
X127186723Y-115399405D01*
X127186723Y-115399405D02*
X126996247Y-115351786D01*
X126996247Y-115351786D02*
X126853390Y-115351786D01*
X126853390Y-115351786D02*
X126662914Y-115399405D01*
X126662914Y-115399405D02*
X126567676Y-115447024D01*
X126567676Y-115447024D02*
X126472438Y-115542262D01*
X126472438Y-115542262D02*
X126424819Y-115685119D01*
X126424819Y-115685119D02*
X126424819Y-115780357D01*
X126424819Y-115780357D02*
X126472438Y-115923214D01*
X126472438Y-115923214D02*
X126520057Y-115970833D01*
X126853390Y-116542262D02*
X126805771Y-116447024D01*
X126805771Y-116447024D02*
X126758152Y-116399405D01*
X126758152Y-116399405D02*
X126662914Y-116351786D01*
X126662914Y-116351786D02*
X126615295Y-116351786D01*
X126615295Y-116351786D02*
X126520057Y-116399405D01*
X126520057Y-116399405D02*
X126472438Y-116447024D01*
X126472438Y-116447024D02*
X126424819Y-116542262D01*
X126424819Y-116542262D02*
X126424819Y-116732738D01*
X126424819Y-116732738D02*
X126472438Y-116827976D01*
X126472438Y-116827976D02*
X126520057Y-116875595D01*
X126520057Y-116875595D02*
X126615295Y-116923214D01*
X126615295Y-116923214D02*
X126662914Y-116923214D01*
X126662914Y-116923214D02*
X126758152Y-116875595D01*
X126758152Y-116875595D02*
X126805771Y-116827976D01*
X126805771Y-116827976D02*
X126853390Y-116732738D01*
X126853390Y-116732738D02*
X126853390Y-116542262D01*
X126853390Y-116542262D02*
X126901009Y-116447024D01*
X126901009Y-116447024D02*
X126948628Y-116399405D01*
X126948628Y-116399405D02*
X127043866Y-116351786D01*
X127043866Y-116351786D02*
X127234342Y-116351786D01*
X127234342Y-116351786D02*
X127329580Y-116399405D01*
X127329580Y-116399405D02*
X127377200Y-116447024D01*
X127377200Y-116447024D02*
X127424819Y-116542262D01*
X127424819Y-116542262D02*
X127424819Y-116732738D01*
X127424819Y-116732738D02*
X127377200Y-116827976D01*
X127377200Y-116827976D02*
X127329580Y-116875595D01*
X127329580Y-116875595D02*
X127234342Y-116923214D01*
X127234342Y-116923214D02*
X127043866Y-116923214D01*
X127043866Y-116923214D02*
X126948628Y-116875595D01*
X126948628Y-116875595D02*
X126901009Y-116827976D01*
X126901009Y-116827976D02*
X126853390Y-116732738D01*
X141654819Y-111919642D02*
X141178628Y-111586309D01*
X141654819Y-111348214D02*
X140654819Y-111348214D01*
X140654819Y-111348214D02*
X140654819Y-111729166D01*
X140654819Y-111729166D02*
X140702438Y-111824404D01*
X140702438Y-111824404D02*
X140750057Y-111872023D01*
X140750057Y-111872023D02*
X140845295Y-111919642D01*
X140845295Y-111919642D02*
X140988152Y-111919642D01*
X140988152Y-111919642D02*
X141083390Y-111872023D01*
X141083390Y-111872023D02*
X141131009Y-111824404D01*
X141131009Y-111824404D02*
X141178628Y-111729166D01*
X141178628Y-111729166D02*
X141178628Y-111348214D01*
X141654819Y-112872023D02*
X141654819Y-112300595D01*
X141654819Y-112586309D02*
X140654819Y-112586309D01*
X140654819Y-112586309D02*
X140797676Y-112491071D01*
X140797676Y-112491071D02*
X140892914Y-112395833D01*
X140892914Y-112395833D02*
X140940533Y-112300595D01*
X140654819Y-113205357D02*
X140654819Y-113824404D01*
X140654819Y-113824404D02*
X141035771Y-113491071D01*
X141035771Y-113491071D02*
X141035771Y-113633928D01*
X141035771Y-113633928D02*
X141083390Y-113729166D01*
X141083390Y-113729166D02*
X141131009Y-113776785D01*
X141131009Y-113776785D02*
X141226247Y-113824404D01*
X141226247Y-113824404D02*
X141464342Y-113824404D01*
X141464342Y-113824404D02*
X141559580Y-113776785D01*
X141559580Y-113776785D02*
X141607200Y-113729166D01*
X141607200Y-113729166D02*
X141654819Y-113633928D01*
X141654819Y-113633928D02*
X141654819Y-113348214D01*
X141654819Y-113348214D02*
X141607200Y-113252976D01*
X141607200Y-113252976D02*
X141559580Y-113205357D01*
X137559580Y-80433333D02*
X137607200Y-80385714D01*
X137607200Y-80385714D02*
X137654819Y-80242857D01*
X137654819Y-80242857D02*
X137654819Y-80147619D01*
X137654819Y-80147619D02*
X137607200Y-80004762D01*
X137607200Y-80004762D02*
X137511961Y-79909524D01*
X137511961Y-79909524D02*
X137416723Y-79861905D01*
X137416723Y-79861905D02*
X137226247Y-79814286D01*
X137226247Y-79814286D02*
X137083390Y-79814286D01*
X137083390Y-79814286D02*
X136892914Y-79861905D01*
X136892914Y-79861905D02*
X136797676Y-79909524D01*
X136797676Y-79909524D02*
X136702438Y-80004762D01*
X136702438Y-80004762D02*
X136654819Y-80147619D01*
X136654819Y-80147619D02*
X136654819Y-80242857D01*
X136654819Y-80242857D02*
X136702438Y-80385714D01*
X136702438Y-80385714D02*
X136750057Y-80433333D01*
X136654819Y-80766667D02*
X136654819Y-81433333D01*
X136654819Y-81433333D02*
X137654819Y-81004762D01*
X148661904Y-110554819D02*
X148661904Y-111364342D01*
X148661904Y-111364342D02*
X148614285Y-111459580D01*
X148614285Y-111459580D02*
X148566666Y-111507200D01*
X148566666Y-111507200D02*
X148471428Y-111554819D01*
X148471428Y-111554819D02*
X148280952Y-111554819D01*
X148280952Y-111554819D02*
X148185714Y-111507200D01*
X148185714Y-111507200D02*
X148138095Y-111459580D01*
X148138095Y-111459580D02*
X148090476Y-111364342D01*
X148090476Y-111364342D02*
X148090476Y-110554819D01*
X147661904Y-110650057D02*
X147614285Y-110602438D01*
X147614285Y-110602438D02*
X147519047Y-110554819D01*
X147519047Y-110554819D02*
X147280952Y-110554819D01*
X147280952Y-110554819D02*
X147185714Y-110602438D01*
X147185714Y-110602438D02*
X147138095Y-110650057D01*
X147138095Y-110650057D02*
X147090476Y-110745295D01*
X147090476Y-110745295D02*
X147090476Y-110840533D01*
X147090476Y-110840533D02*
X147138095Y-110983390D01*
X147138095Y-110983390D02*
X147709523Y-111554819D01*
X147709523Y-111554819D02*
X147090476Y-111554819D01*
X141559580Y-117533333D02*
X141607200Y-117485714D01*
X141607200Y-117485714D02*
X141654819Y-117342857D01*
X141654819Y-117342857D02*
X141654819Y-117247619D01*
X141654819Y-117247619D02*
X141607200Y-117104762D01*
X141607200Y-117104762D02*
X141511961Y-117009524D01*
X141511961Y-117009524D02*
X141416723Y-116961905D01*
X141416723Y-116961905D02*
X141226247Y-116914286D01*
X141226247Y-116914286D02*
X141083390Y-116914286D01*
X141083390Y-116914286D02*
X140892914Y-116961905D01*
X140892914Y-116961905D02*
X140797676Y-117009524D01*
X140797676Y-117009524D02*
X140702438Y-117104762D01*
X140702438Y-117104762D02*
X140654819Y-117247619D01*
X140654819Y-117247619D02*
X140654819Y-117342857D01*
X140654819Y-117342857D02*
X140702438Y-117485714D01*
X140702438Y-117485714D02*
X140750057Y-117533333D01*
X141654819Y-118009524D02*
X141654819Y-118200000D01*
X141654819Y-118200000D02*
X141607200Y-118295238D01*
X141607200Y-118295238D02*
X141559580Y-118342857D01*
X141559580Y-118342857D02*
X141416723Y-118438095D01*
X141416723Y-118438095D02*
X141226247Y-118485714D01*
X141226247Y-118485714D02*
X140845295Y-118485714D01*
X140845295Y-118485714D02*
X140750057Y-118438095D01*
X140750057Y-118438095D02*
X140702438Y-118390476D01*
X140702438Y-118390476D02*
X140654819Y-118295238D01*
X140654819Y-118295238D02*
X140654819Y-118104762D01*
X140654819Y-118104762D02*
X140702438Y-118009524D01*
X140702438Y-118009524D02*
X140750057Y-117961905D01*
X140750057Y-117961905D02*
X140845295Y-117914286D01*
X140845295Y-117914286D02*
X141083390Y-117914286D01*
X141083390Y-117914286D02*
X141178628Y-117961905D01*
X141178628Y-117961905D02*
X141226247Y-118009524D01*
X141226247Y-118009524D02*
X141273866Y-118104762D01*
X141273866Y-118104762D02*
X141273866Y-118295238D01*
X141273866Y-118295238D02*
X141226247Y-118390476D01*
X141226247Y-118390476D02*
X141178628Y-118438095D01*
X141178628Y-118438095D02*
X141083390Y-118485714D01*
X135284819Y-84033333D02*
X134808628Y-83700000D01*
X135284819Y-83461905D02*
X134284819Y-83461905D01*
X134284819Y-83461905D02*
X134284819Y-83842857D01*
X134284819Y-83842857D02*
X134332438Y-83938095D01*
X134332438Y-83938095D02*
X134380057Y-83985714D01*
X134380057Y-83985714D02*
X134475295Y-84033333D01*
X134475295Y-84033333D02*
X134618152Y-84033333D01*
X134618152Y-84033333D02*
X134713390Y-83985714D01*
X134713390Y-83985714D02*
X134761009Y-83938095D01*
X134761009Y-83938095D02*
X134808628Y-83842857D01*
X134808628Y-83842857D02*
X134808628Y-83461905D01*
X134284819Y-84366667D02*
X134284819Y-85033333D01*
X134284819Y-85033333D02*
X135284819Y-84604762D01*
X134333333Y-78099819D02*
X134333333Y-78814104D01*
X134333333Y-78814104D02*
X134380952Y-78956961D01*
X134380952Y-78956961D02*
X134476190Y-79052200D01*
X134476190Y-79052200D02*
X134619047Y-79099819D01*
X134619047Y-79099819D02*
X134714285Y-79099819D01*
X133380952Y-78099819D02*
X133857142Y-78099819D01*
X133857142Y-78099819D02*
X133904761Y-78576009D01*
X133904761Y-78576009D02*
X133857142Y-78528390D01*
X133857142Y-78528390D02*
X133761904Y-78480771D01*
X133761904Y-78480771D02*
X133523809Y-78480771D01*
X133523809Y-78480771D02*
X133428571Y-78528390D01*
X133428571Y-78528390D02*
X133380952Y-78576009D01*
X133380952Y-78576009D02*
X133333333Y-78671247D01*
X133333333Y-78671247D02*
X133333333Y-78909342D01*
X133333333Y-78909342D02*
X133380952Y-79004580D01*
X133380952Y-79004580D02*
X133428571Y-79052200D01*
X133428571Y-79052200D02*
X133523809Y-79099819D01*
X133523809Y-79099819D02*
X133761904Y-79099819D01*
X133761904Y-79099819D02*
X133857142Y-79052200D01*
X133857142Y-79052200D02*
X133904761Y-79004580D01*
D11*
%TO.C,R2*%
X131145276Y-88477500D02*
X131654724Y-88477500D01*
X131145276Y-89522500D02*
X131654724Y-89522500D01*
%TO.C,R1*%
X131145276Y-90077500D02*
X131654724Y-90077500D01*
X131145276Y-91122500D02*
X131654724Y-91122500D01*
%TO.C,U3*%
X130900000Y-91600000D02*
X130900000Y-92600000D01*
X129900000Y-91600000D02*
X130900000Y-91600000D01*
X130900000Y-92600000D02*
X129900000Y-91600000D01*
D12*
X104900000Y-91600000D02*
X130900000Y-91600000D01*
X130900000Y-91600000D02*
X130900000Y-107600000D01*
X130900000Y-107600000D02*
X104900000Y-107600000D01*
X104900000Y-107600000D02*
X104900000Y-91600000D01*
D11*
%TO.C,R11*%
X136677500Y-87854724D02*
X136677500Y-87345276D01*
X137722500Y-87854724D02*
X137722500Y-87345276D01*
%TO.C,R12*%
X128922500Y-111195276D02*
X128922500Y-111704724D01*
X127877500Y-111195276D02*
X127877500Y-111704724D01*
%TO.C,C6*%
X132110000Y-84053733D02*
X132110000Y-84346267D01*
X131090000Y-84053733D02*
X131090000Y-84346267D01*
%TO.C,C8*%
X128910000Y-115991233D02*
X128910000Y-116283767D01*
X127890000Y-115991233D02*
X127890000Y-116283767D01*
%TO.C,R13*%
X140122500Y-112145276D02*
X140122500Y-112654724D01*
X139077500Y-112145276D02*
X139077500Y-112654724D01*
%TO.C,C7*%
X137710000Y-83453733D02*
X137710000Y-83746267D01*
X136690000Y-83453733D02*
X136690000Y-83746267D01*
%TO.C,U2*%
X134685000Y-109090000D02*
X134685000Y-108090000D01*
X135465000Y-109090000D02*
X134685000Y-109090000D01*
X154010000Y-109090000D02*
X154010000Y-109470000D01*
X160425000Y-109090000D02*
X154010000Y-109090000D01*
X160425000Y-109090000D02*
X160425000Y-90850000D01*
X134685000Y-90850000D02*
X134685000Y-91850000D01*
X135465000Y-90850000D02*
X134685000Y-90850000D01*
X160425000Y-90850000D02*
X154010000Y-90850000D01*
%TO.C,C9*%
X140110000Y-117391233D02*
X140110000Y-117683767D01*
X139090000Y-117391233D02*
X139090000Y-117683767D01*
%TO.C,R7*%
X132877500Y-84454724D02*
X132877500Y-83945276D01*
X133922500Y-84454724D02*
X133922500Y-83945276D01*
%TO.C,J5*%
X129300000Y-69100000D02*
X138700000Y-69100000D01*
X129300000Y-71000000D02*
X129300000Y-69100000D01*
X129300000Y-74900000D02*
X129300000Y-72900000D01*
X138700000Y-71000000D02*
X138700000Y-69100000D01*
X138700000Y-74900000D02*
X138700000Y-72900000D01*
%TD*%
%LPC*%
D13*
%TO.C,REF\u002A\u002A*%
X143000000Y-125000000D03*
%TD*%
D14*
%TO.C,J3*%
X115920000Y-90540000D03*
D15*
X115920000Y-88000000D03*
X118460000Y-90540000D03*
X118460000Y-88000000D03*
X121000000Y-90540000D03*
X121000000Y-88000000D03*
X123540000Y-90540000D03*
X123540000Y-88000000D03*
%TD*%
D14*
%TO.C,J2*%
X144520000Y-88200000D03*
D15*
X144520000Y-85660000D03*
X147060000Y-88200000D03*
X147060000Y-85660000D03*
X149600000Y-88200000D03*
X149600000Y-85660000D03*
X152140000Y-88200000D03*
X152140000Y-85660000D03*
%TD*%
D16*
%TO.C,J1*%
X149420386Y-76728198D03*
X147352532Y-75253212D03*
D17*
X147945400Y-78796051D03*
D13*
X145877547Y-77321065D03*
%TD*%
D18*
%TO.C,SW2*%
X127750000Y-82500000D03*
X140250000Y-82500000D03*
X127750000Y-87500000D03*
X140250000Y-87500000D03*
%TD*%
D13*
%TO.C,REF\u002A\u002A*%
X142000000Y-75000000D03*
%TD*%
D19*
%TO.C,SW1*%
X116750000Y-78750000D03*
X123250000Y-78750000D03*
X116750000Y-83250000D03*
X123250000Y-83250000D03*
%TD*%
D13*
%TO.C,REF\u002A\u002A*%
X125000000Y-125000000D03*
%TD*%
D18*
%TO.C,SW3*%
X118750000Y-113700000D03*
X131250000Y-113700000D03*
X118750000Y-118700000D03*
X131250000Y-118700000D03*
%TD*%
D13*
%TO.C,REF\u002A\u002A*%
X126000000Y-75000000D03*
%TD*%
D14*
%TO.C,J4*%
X131460000Y-125400000D03*
D15*
X134000000Y-125400000D03*
X136540000Y-125400000D03*
%TD*%
D18*
%TO.C,SW4*%
X136750000Y-113700000D03*
X149250000Y-113700000D03*
X136750000Y-118700000D03*
X149250000Y-118700000D03*
%TD*%
D20*
%TO.C,R2*%
X130487500Y-89000000D03*
X132312500Y-89000000D03*
%TD*%
%TO.C,R1*%
X130487500Y-90600000D03*
X132312500Y-90600000D03*
%TD*%
D21*
%TO.C,U3*%
X128900000Y-94600000D03*
X128900000Y-96600000D03*
X128900000Y-98600000D03*
X128900000Y-100600000D03*
X128900000Y-102600000D03*
X128900000Y-104600000D03*
%TD*%
D22*
%TO.C,R11*%
X137200000Y-88512500D03*
X137200000Y-86687500D03*
%TD*%
D23*
%TO.C,R12*%
X128400000Y-110537500D03*
X128400000Y-112362500D03*
%TD*%
D24*
%TO.C,C6*%
X131600000Y-83337500D03*
X131600000Y-85062500D03*
%TD*%
%TO.C,C8*%
X128400000Y-115275000D03*
X128400000Y-117000000D03*
%TD*%
D23*
%TO.C,R13*%
X139600000Y-111487500D03*
X139600000Y-113312500D03*
%TD*%
D24*
%TO.C,C7*%
X137200000Y-82737500D03*
X137200000Y-84462500D03*
%TD*%
D25*
%TO.C,U2*%
X152815000Y-108720000D03*
X151545000Y-108720000D03*
X150275000Y-108720000D03*
X149005000Y-108720000D03*
X147735000Y-108720000D03*
X146465000Y-108720000D03*
X145195000Y-108720000D03*
X143925000Y-108720000D03*
X142655000Y-108720000D03*
X141385000Y-108720000D03*
X140115000Y-108720000D03*
X138845000Y-108720000D03*
X137575000Y-108720000D03*
X136305000Y-108720000D03*
D26*
X135055000Y-105680000D03*
X135055000Y-104410000D03*
X135055000Y-103140000D03*
X135055000Y-101870000D03*
X135055000Y-100600000D03*
X135055000Y-99330000D03*
X135055000Y-98060000D03*
X135055000Y-96790000D03*
X135055000Y-95520000D03*
X135055000Y-94250000D03*
D25*
X136305000Y-91220000D03*
X137575000Y-91220000D03*
X138845000Y-91220000D03*
X140115000Y-91220000D03*
X141385000Y-91220000D03*
X142655000Y-91220000D03*
X143925000Y-91220000D03*
X145195000Y-91220000D03*
X146465000Y-91220000D03*
X147735000Y-91220000D03*
X149005000Y-91220000D03*
X150275000Y-91220000D03*
X151545000Y-91220000D03*
X152815000Y-91220000D03*
D27*
X144665000Y-101370000D03*
X146165000Y-101370000D03*
D28*
X145475000Y-100650000D03*
D27*
X144665000Y-99870000D03*
X146165000Y-99870000D03*
%TD*%
D24*
%TO.C,C9*%
X139600000Y-116675000D03*
X139600000Y-118400000D03*
%TD*%
D22*
%TO.C,R7*%
X133400000Y-85112500D03*
X133400000Y-83287500D03*
%TD*%
D29*
%TO.C,J5*%
X131110000Y-75600000D03*
X136890000Y-75600000D03*
D30*
X130750000Y-77045000D03*
X131550000Y-77045000D03*
D31*
X132750000Y-77045000D03*
X133750000Y-77045000D03*
X134250000Y-77045000D03*
X135250000Y-77045000D03*
D30*
X136450000Y-77045000D03*
X137250000Y-77045000D03*
X137250000Y-77045000D03*
X136450000Y-77045000D03*
D31*
X135750000Y-77045000D03*
X134750000Y-77045000D03*
X133250000Y-77045000D03*
X132250000Y-77045000D03*
D30*
X131550000Y-77045000D03*
X130750000Y-77045000D03*
D32*
X129680000Y-71950000D03*
D33*
X129680000Y-76130000D03*
D32*
X138320000Y-71950000D03*
D33*
X138320000Y-76130000D03*
%TD*%
%LPD*%
M02*
