M48
; DRILL file {KiCad 7.0.6} date Sun Jan  7 21:20:30 2024
; FORMAT={-:-/ absolute / metric / decimal}
; #@! TF.CreationDate,2024-01-07T21:20:30+01:00
; #@! TF.GenerationSoftware,Kicad,Pcbnew,7.0.6
; #@! TF.FileFunction,Plated,1,2,PTH
FMAT,2
METRIC
; #@! TA.AperFunction,Plated,PTH,ViaDrill
T1C0.400
; #@! TA.AperFunction,Plated,PTH,ComponentDrill
T2C0.400
; #@! TA.AperFunction,Plated,PTH,ComponentDrill
T3C0.600
; #@! TA.AperFunction,Plated,PTH,ComponentDrill
T4C1.000
; #@! TA.AperFunction,Plated,PTH,ComponentDrill
T5C1.100
; #@! TA.AperFunction,Plated,PTH,ComponentDrill
T6C1.200
%
G90
G05
T1
X116.1Y-101.2
X116.1Y-102.7
X116.1Y-104.3
X120.8Y-105.1
X121.5Y-106.1
X122.0Y-92.7
X122.2Y-105.1
X122.3Y-85.9
X122.3Y-102.7
X122.4Y-94.3
X122.4Y-96.0
X122.5Y-106.8
X123.5Y-92.6
X123.6Y-85.9
X123.9Y-106.8
X124.5Y-98.7
X124.6Y-93.65
X125.0Y-97.3
X125.1Y-106.8
X125.6Y-102.0
X125.6Y-102.9
X126.4Y-106.8
X126.8Y-96.3
X126.85Y-95.35
X129.8Y-84.9
X130.487Y-89.0
X130.487Y-90.6
X130.493Y-97.537
X130.5Y-103.9
X131.2Y-98.6
X131.2Y-101.2
X131.4Y-103.9
X132.135Y-102.124
X132.652Y-92.798
X133.45Y-75.25
X134.18Y-95.536
X134.95Y-108.55
X135.027Y-93.51
X135.05Y-107.0
X136.25Y-74.45
X136.422Y-104.994
X137.549Y-93.51
X138.2Y-102.1
X138.5Y-92.7
X139.286Y-96.226
X139.7Y-95.5
X140.2Y-107.25
X140.5Y-103.9
X141.1Y-100.9
X141.4Y-107.4
X141.71Y-93.72
X142.75Y-106.8
X142.95Y-94.65
X143.76Y-92.454
X143.95Y-105.2
X143.95Y-106.75
X146.62Y-92.85
X147.6Y-93.7
X148.851Y-94.089
X149.51Y-97.907
X149.7Y-107.35
X150.5Y-93.2
X150.9Y-111.1
X151.45Y-107.4
X151.8Y-93.2
X151.8Y-111.9
X153.1Y-93.2
X153.3Y-100.6
X153.3Y-102.0
X153.3Y-103.4
X153.3Y-104.8
X153.3Y-106.4
X153.3Y-110.7
X153.3Y-111.9
T2
X144.665Y-99.87
X144.665Y-101.37
X146.165Y-99.87
X146.165Y-101.37
T4
X115.92Y-88.0
X115.92Y-90.54
X118.46Y-88.0
X118.46Y-90.54
X121.0Y-88.0
X121.0Y-90.54
X123.54Y-88.0
X123.54Y-90.54
X131.46Y-125.4
X134.0Y-125.4
X136.54Y-125.4
X144.52Y-85.66
X144.52Y-88.2
X147.06Y-85.66
X147.06Y-88.2
X149.6Y-85.66
X149.6Y-88.2
X152.14Y-85.66
X152.14Y-88.2
T5
X116.75Y-78.75
X116.75Y-83.25
X123.25Y-78.75
X123.25Y-83.25
X145.878Y-77.321
X147.945Y-78.796
T6
X118.75Y-113.7
X118.75Y-118.7
X127.75Y-82.5
X127.75Y-87.5
X131.25Y-113.7
X131.25Y-118.7
X136.75Y-113.7
X136.75Y-118.7
X140.25Y-82.5
X140.25Y-87.5
X149.25Y-113.7
X149.25Y-118.7
T3
X129.68Y-71.65G85X129.68Y-72.25
G05
X129.68Y-75.58G85X129.68Y-76.68
G05
X138.32Y-71.65G85X138.32Y-72.25
G05
X138.32Y-75.58G85X138.32Y-76.68
G05
T0
M30
