%TF.GenerationSoftware,KiCad,Pcbnew,7.0.6*%
%TF.CreationDate,2024-01-07T21:19:13+01:00*%
%TF.ProjectId,esp-lamp,6573702d-6c61-46d7-902e-6b696361645f,rev?*%
%TF.SameCoordinates,Original*%
%TF.FileFunction,Paste,Bot*%
%TF.FilePolarity,Positive*%
%FSLAX46Y46*%
G04 Gerber Fmt 4.6, Leading zero omitted, Abs format (unit mm)*
G04 Created by KiCad (PCBNEW 7.0.6) date 2024-01-07 21:19:13*
%MOMM*%
%LPD*%
G01*
G04 APERTURE LIST*
G04 Aperture macros list*
%AMRoundRect*
0 Rectangle with rounded corners*
0 $1 Rounding radius*
0 $2 $3 $4 $5 $6 $7 $8 $9 X,Y pos of 4 corners*
0 Add a 4 corners polygon primitive as box body*
4,1,4,$2,$3,$4,$5,$6,$7,$8,$9,$2,$3,0*
0 Add four circle primitives for the rounded corners*
1,1,$1+$1,$2,$3*
1,1,$1+$1,$4,$5*
1,1,$1+$1,$6,$7*
1,1,$1+$1,$8,$9*
0 Add four rect primitives between the rounded corners*
20,1,$1+$1,$2,$3,$4,$5,0*
20,1,$1+$1,$4,$5,$6,$7,0*
20,1,$1+$1,$6,$7,$8,$9,0*
20,1,$1+$1,$8,$9,$2,$3,0*%
G04 Aperture macros list end*
%ADD10RoundRect,0.237500X-0.250000X-0.237500X0.250000X-0.237500X0.250000X0.237500X-0.250000X0.237500X0*%
%ADD11RoundRect,0.237500X0.237500X-0.250000X0.237500X0.250000X-0.237500X0.250000X-0.237500X-0.250000X0*%
%ADD12RoundRect,0.237500X-0.237500X0.250000X-0.237500X-0.250000X0.237500X-0.250000X0.237500X0.250000X0*%
%ADD13RoundRect,0.237500X-0.237500X0.300000X-0.237500X-0.300000X0.237500X-0.300000X0.237500X0.300000X0*%
%ADD14R,0.900000X1.500000*%
%ADD15R,1.500000X0.900000*%
%ADD16R,1.050000X1.050000*%
%ADD17R,0.600000X1.450000*%
%ADD18R,0.300000X1.450000*%
G04 APERTURE END LIST*
D10*
%TO.C,R2*%
X130487500Y-89000000D03*
X132312500Y-89000000D03*
%TD*%
%TO.C,R1*%
X130487500Y-90600000D03*
X132312500Y-90600000D03*
%TD*%
D11*
%TO.C,R11*%
X137200000Y-88512500D03*
X137200000Y-86687500D03*
%TD*%
D12*
%TO.C,R12*%
X128400000Y-110537500D03*
X128400000Y-112362500D03*
%TD*%
D13*
%TO.C,C6*%
X131600000Y-83337500D03*
X131600000Y-85062500D03*
%TD*%
%TO.C,C8*%
X128400000Y-115275000D03*
X128400000Y-117000000D03*
%TD*%
D12*
%TO.C,R13*%
X139600000Y-111487500D03*
X139600000Y-113312500D03*
%TD*%
D13*
%TO.C,C7*%
X137200000Y-82737500D03*
X137200000Y-84462500D03*
%TD*%
D14*
%TO.C,U2*%
X152815000Y-108720000D03*
X151545000Y-108720000D03*
X150275000Y-108720000D03*
X149005000Y-108720000D03*
X147735000Y-108720000D03*
X146465000Y-108720000D03*
X145195000Y-108720000D03*
X143925000Y-108720000D03*
X142655000Y-108720000D03*
X141385000Y-108720000D03*
X140115000Y-108720000D03*
X138845000Y-108720000D03*
X137575000Y-108720000D03*
X136305000Y-108720000D03*
D15*
X135055000Y-105680000D03*
X135055000Y-104410000D03*
X135055000Y-103140000D03*
X135055000Y-101870000D03*
X135055000Y-100600000D03*
X135055000Y-99330000D03*
X135055000Y-98060000D03*
X135055000Y-96790000D03*
X135055000Y-95520000D03*
X135055000Y-94250000D03*
D14*
X136305000Y-91220000D03*
X137575000Y-91220000D03*
X138845000Y-91220000D03*
X140115000Y-91220000D03*
X141385000Y-91220000D03*
X142655000Y-91220000D03*
X143925000Y-91220000D03*
X145195000Y-91220000D03*
X146465000Y-91220000D03*
X147735000Y-91220000D03*
X149005000Y-91220000D03*
X150275000Y-91220000D03*
X151545000Y-91220000D03*
X152815000Y-91220000D03*
D16*
X143950000Y-102175000D03*
X145475000Y-102175000D03*
X147000000Y-102175000D03*
X143950000Y-100650000D03*
X145475000Y-100650000D03*
X147000000Y-100650000D03*
X143950000Y-99125000D03*
X145475000Y-99125000D03*
X147000000Y-99125000D03*
%TD*%
D13*
%TO.C,C9*%
X139600000Y-116675000D03*
X139600000Y-118400000D03*
%TD*%
D11*
%TO.C,R7*%
X133400000Y-85112500D03*
X133400000Y-83287500D03*
%TD*%
D17*
%TO.C,J5*%
X130750000Y-77045000D03*
X131550000Y-77045000D03*
D18*
X132750000Y-77045000D03*
X133750000Y-77045000D03*
X134250000Y-77045000D03*
X135250000Y-77045000D03*
D17*
X136450000Y-77045000D03*
X137250000Y-77045000D03*
X137250000Y-77045000D03*
X136450000Y-77045000D03*
D18*
X135750000Y-77045000D03*
X134750000Y-77045000D03*
X133250000Y-77045000D03*
X132250000Y-77045000D03*
D17*
X131550000Y-77045000D03*
X130750000Y-77045000D03*
%TD*%
M02*
