%TF.GenerationSoftware,KiCad,Pcbnew,7.0.6*%
%TF.CreationDate,2024-01-07T21:19:13+01:00*%
%TF.ProjectId,esp-lamp,6573702d-6c61-46d7-902e-6b696361645f,rev?*%
%TF.SameCoordinates,Original*%
%TF.FileFunction,Soldermask,Bot*%
%TF.FilePolarity,Negative*%
%FSLAX46Y46*%
G04 Gerber Fmt 4.6, Leading zero omitted, Abs format (unit mm)*
G04 Created by KiCad (PCBNEW 7.0.6) date 2024-01-07 21:19:13*
%MOMM*%
%LPD*%
G01*
G04 APERTURE LIST*
G04 Aperture macros list*
%AMRoundRect*
0 Rectangle with rounded corners*
0 $1 Rounding radius*
0 $2 $3 $4 $5 $6 $7 $8 $9 X,Y pos of 4 corners*
0 Add a 4 corners polygon primitive as box body*
4,1,4,$2,$3,$4,$5,$6,$7,$8,$9,$2,$3,0*
0 Add four circle primitives for the rounded corners*
1,1,$1+$1,$2,$3*
1,1,$1+$1,$4,$5*
1,1,$1+$1,$6,$7*
1,1,$1+$1,$8,$9*
0 Add four rect primitives between the rounded corners*
20,1,$1+$1,$2,$3,$4,$5,0*
20,1,$1+$1,$4,$5,$6,$7,0*
20,1,$1+$1,$6,$7,$8,$9,0*
20,1,$1+$1,$8,$9,$2,$3,0*%
%AMRotRect*
0 Rectangle, with rotation*
0 The origin of the aperture is its center*
0 $1 length*
0 $2 width*
0 $3 Rotation angle, in degrees counterclockwise*
0 Add horizontal line*
21,1,$1,$2,0,0,$3*%
G04 Aperture macros list end*
%ADD10C,2.200000*%
%ADD11R,1.700000X1.700000*%
%ADD12O,1.700000X1.700000*%
%ADD13C,1.100000*%
%ADD14RotRect,2.200000X2.200000X144.500000*%
%ADD15O,3.000000X2.500000*%
%ADD16C,2.000000*%
%ADD17RoundRect,0.237500X-0.250000X-0.237500X0.250000X-0.237500X0.250000X0.237500X-0.250000X0.237500X0*%
%ADD18RoundRect,0.310000X0.833000X0.310000X-0.833000X0.310000X-0.833000X-0.310000X0.833000X-0.310000X0*%
%ADD19RoundRect,0.237500X0.237500X-0.250000X0.237500X0.250000X-0.237500X0.250000X-0.237500X-0.250000X0*%
%ADD20RoundRect,0.237500X-0.237500X0.250000X-0.237500X-0.250000X0.237500X-0.250000X0.237500X0.250000X0*%
%ADD21RoundRect,0.237500X-0.237500X0.300000X-0.237500X-0.300000X0.237500X-0.300000X0.237500X0.300000X0*%
%ADD22R,0.900000X1.500000*%
%ADD23R,1.500000X0.900000*%
%ADD24C,0.800000*%
%ADD25R,4.200000X4.200000*%
%ADD26C,0.650000*%
%ADD27R,0.600000X1.450000*%
%ADD28R,0.300000X1.450000*%
%ADD29O,1.000000X1.600000*%
%ADD30O,1.000000X2.100000*%
G04 APERTURE END LIST*
D10*
%TO.C,REF\u002A\u002A*%
X143000000Y-125000000D03*
%TD*%
D11*
%TO.C,J3*%
X115920000Y-90540000D03*
D12*
X115920000Y-88000000D03*
X118460000Y-90540000D03*
X118460000Y-88000000D03*
X121000000Y-90540000D03*
X121000000Y-88000000D03*
X123540000Y-90540000D03*
X123540000Y-88000000D03*
%TD*%
D11*
%TO.C,J2*%
X144520000Y-88200000D03*
D12*
X144520000Y-85660000D03*
X147060000Y-88200000D03*
X147060000Y-85660000D03*
X149600000Y-88200000D03*
X149600000Y-85660000D03*
X152140000Y-88200000D03*
X152140000Y-85660000D03*
%TD*%
D13*
%TO.C,J1*%
X149420386Y-76728198D03*
X147352532Y-75253212D03*
D14*
X147945400Y-78796051D03*
D10*
X145877547Y-77321065D03*
%TD*%
D15*
%TO.C,SW2*%
X127750000Y-82500000D03*
X140250000Y-82500000D03*
X127750000Y-87500000D03*
X140250000Y-87500000D03*
%TD*%
D10*
%TO.C,REF\u002A\u002A*%
X142000000Y-75000000D03*
%TD*%
D16*
%TO.C,SW1*%
X116750000Y-78750000D03*
X123250000Y-78750000D03*
X116750000Y-83250000D03*
X123250000Y-83250000D03*
%TD*%
D10*
%TO.C,REF\u002A\u002A*%
X125000000Y-125000000D03*
%TD*%
D15*
%TO.C,SW3*%
X118750000Y-113700000D03*
X131250000Y-113700000D03*
X118750000Y-118700000D03*
X131250000Y-118700000D03*
%TD*%
D10*
%TO.C,REF\u002A\u002A*%
X126000000Y-75000000D03*
%TD*%
D11*
%TO.C,J4*%
X131460000Y-125400000D03*
D12*
X134000000Y-125400000D03*
X136540000Y-125400000D03*
%TD*%
D15*
%TO.C,SW4*%
X136750000Y-113700000D03*
X149250000Y-113700000D03*
X136750000Y-118700000D03*
X149250000Y-118700000D03*
%TD*%
D17*
%TO.C,R2*%
X130487500Y-89000000D03*
X132312500Y-89000000D03*
%TD*%
%TO.C,R1*%
X130487500Y-90600000D03*
X132312500Y-90600000D03*
%TD*%
D18*
%TO.C,U3*%
X128900000Y-94600000D03*
X128900000Y-96600000D03*
X128900000Y-98600000D03*
X128900000Y-100600000D03*
X128900000Y-102600000D03*
X128900000Y-104600000D03*
%TD*%
D19*
%TO.C,R11*%
X137200000Y-88512500D03*
X137200000Y-86687500D03*
%TD*%
D20*
%TO.C,R12*%
X128400000Y-110537500D03*
X128400000Y-112362500D03*
%TD*%
D21*
%TO.C,C6*%
X131600000Y-83337500D03*
X131600000Y-85062500D03*
%TD*%
%TO.C,C8*%
X128400000Y-115275000D03*
X128400000Y-117000000D03*
%TD*%
D20*
%TO.C,R13*%
X139600000Y-111487500D03*
X139600000Y-113312500D03*
%TD*%
D21*
%TO.C,C7*%
X137200000Y-82737500D03*
X137200000Y-84462500D03*
%TD*%
D22*
%TO.C,U2*%
X152815000Y-108720000D03*
X151545000Y-108720000D03*
X150275000Y-108720000D03*
X149005000Y-108720000D03*
X147735000Y-108720000D03*
X146465000Y-108720000D03*
X145195000Y-108720000D03*
X143925000Y-108720000D03*
X142655000Y-108720000D03*
X141385000Y-108720000D03*
X140115000Y-108720000D03*
X138845000Y-108720000D03*
X137575000Y-108720000D03*
X136305000Y-108720000D03*
D23*
X135055000Y-105680000D03*
X135055000Y-104410000D03*
X135055000Y-103140000D03*
X135055000Y-101870000D03*
X135055000Y-100600000D03*
X135055000Y-99330000D03*
X135055000Y-98060000D03*
X135055000Y-96790000D03*
X135055000Y-95520000D03*
X135055000Y-94250000D03*
D22*
X136305000Y-91220000D03*
X137575000Y-91220000D03*
X138845000Y-91220000D03*
X140115000Y-91220000D03*
X141385000Y-91220000D03*
X142655000Y-91220000D03*
X143925000Y-91220000D03*
X145195000Y-91220000D03*
X146465000Y-91220000D03*
X147735000Y-91220000D03*
X149005000Y-91220000D03*
X150275000Y-91220000D03*
X151545000Y-91220000D03*
X152815000Y-91220000D03*
D24*
X144665000Y-101370000D03*
X146165000Y-101370000D03*
D25*
X145475000Y-100650000D03*
D24*
X144665000Y-99870000D03*
X146165000Y-99870000D03*
%TD*%
D21*
%TO.C,C9*%
X139600000Y-116675000D03*
X139600000Y-118400000D03*
%TD*%
D19*
%TO.C,R7*%
X133400000Y-85112500D03*
X133400000Y-83287500D03*
%TD*%
D26*
%TO.C,J5*%
X131110000Y-75600000D03*
X136890000Y-75600000D03*
D27*
X130750000Y-77045000D03*
X131550000Y-77045000D03*
D28*
X132750000Y-77045000D03*
X133750000Y-77045000D03*
X134250000Y-77045000D03*
X135250000Y-77045000D03*
D27*
X136450000Y-77045000D03*
X137250000Y-77045000D03*
X137250000Y-77045000D03*
X136450000Y-77045000D03*
D28*
X135750000Y-77045000D03*
X134750000Y-77045000D03*
X133250000Y-77045000D03*
X132250000Y-77045000D03*
D27*
X131550000Y-77045000D03*
X130750000Y-77045000D03*
D29*
X129680000Y-71950000D03*
D30*
X129680000Y-76130000D03*
D29*
X138320000Y-71950000D03*
D30*
X138320000Y-76130000D03*
%TD*%
M02*
